<svg width="95" height="830" viewBox="0 0 95 830" fill="none" xmlns="http://www.w3.org/2000/svg">
<g clip-path="url(#clip0_134_3887)">
<g filter="url(#filter0_dd_134_3887)">
<rect width="95" height="830" fill="url(#paint0_linear_134_3887)"/>
</g>
<g filter="url(#filter1_dd_134_3887)">
<path d="M44.1166 487.16C43.9699 487.293 43.8166 487.487 43.6566 487.74C43.4832 487.993 43.3232 488.293 43.1766 488.64C43.0299 488.987 42.9099 489.36 42.8166 489.76C42.7232 490.16 42.6766 490.573 42.6766 491C42.6766 491.933 42.8499 492.627 43.1966 493.08C43.5432 493.533 44.0232 493.76 44.6366 493.76C45.0899 493.76 45.4499 493.633 45.7166 493.38C45.9699 493.127 46.1832 492.74 46.3566 492.22C46.5299 491.7 46.7166 491.047 46.9166 490.26C47.1432 489.3 47.4166 488.467 47.7366 487.76C48.0432 487.053 48.4566 486.513 48.9766 486.14C49.4966 485.767 50.1832 485.58 51.0366 485.58C51.7566 485.58 52.3766 485.713 52.8966 485.98C53.4166 486.247 53.8432 486.62 54.1766 487.1C54.4966 487.58 54.7366 488.133 54.8966 488.76C55.0432 489.387 55.1166 490.06 55.1166 490.78C55.1166 491.487 55.0432 492.193 54.8966 492.9C54.7499 493.593 54.5366 494.26 54.2566 494.9C53.9632 495.527 53.6099 496.107 53.1966 496.64L51.2766 495.62C51.4499 495.447 51.6432 495.2 51.8566 494.88C52.0566 494.547 52.2499 494.167 52.4366 493.74C52.6232 493.3 52.7832 492.827 52.9166 492.32C53.0366 491.8 53.0966 491.273 53.0966 490.74C53.0966 489.847 52.9432 489.167 52.6366 488.7C52.3166 488.22 51.8632 487.98 51.2766 487.98C50.7966 487.98 50.4166 488.133 50.1366 488.44C49.8432 488.747 49.5966 489.193 49.3966 489.78C49.1966 490.367 48.9966 491.067 48.7966 491.88C48.5432 492.813 48.2699 493.593 47.9766 494.22C47.6699 494.847 47.2832 495.32 46.8166 495.64C46.3366 495.947 45.7299 496.1 44.9966 496.1C44.0632 496.1 43.2766 495.873 42.6366 495.42C41.9832 494.967 41.4966 494.353 41.1766 493.58C40.8432 492.793 40.6766 491.913 40.6766 490.94C40.6766 490.3 40.7499 489.693 40.8966 489.12C41.0299 488.547 41.2166 488.013 41.4566 487.52C41.6966 487.013 41.9699 486.553 42.2766 486.14L44.1166 487.16ZM54.4366 478.008C54.5299 478.195 54.6299 478.428 54.7366 478.708C54.8432 478.988 54.9366 479.308 55.0166 479.668C55.0966 480.015 55.1366 480.375 55.1366 480.748C55.1366 481.202 55.0566 481.622 54.8966 482.008C54.7366 482.395 54.4832 482.708 54.1366 482.948C53.7766 483.175 53.3166 483.288 52.7566 483.288H46.2166V484.668H44.5166V483.288H41.0766V481.088H44.5166V478.808H46.2166V481.088H52.0566C52.4166 481.062 52.6832 480.948 52.8566 480.748C53.0299 480.535 53.1166 480.275 53.1166 479.968C53.1166 479.662 53.0632 479.368 52.9566 479.088C52.8499 478.808 52.7632 478.602 52.6966 478.468L54.4366 478.008ZM55.1766 471.881C55.1766 472.695 55.0366 473.435 54.7566 474.101C54.4632 474.755 54.0699 475.321 53.5766 475.801C53.0699 476.281 52.4966 476.655 51.8566 476.921C51.2032 477.175 50.5099 477.301 49.7766 477.301C48.7899 477.301 47.8899 477.075 47.0766 476.621C46.2499 476.168 45.5899 475.535 45.0966 474.721C44.5899 473.908 44.3366 472.955 44.3366 471.861C44.3366 470.768 44.5899 469.828 45.0966 469.041C45.5899 468.241 46.2432 467.621 47.0566 467.181C47.8699 466.741 48.7432 466.521 49.6766 466.521C49.8366 466.521 49.9899 466.528 50.1366 466.541C50.2699 466.555 50.3832 466.568 50.4766 466.581V474.961C51.0899 474.921 51.6299 474.755 52.0966 474.461C52.5499 474.155 52.9099 473.768 53.1766 473.301C53.4299 472.835 53.5566 472.335 53.5566 471.801C53.5566 471.215 53.4099 470.661 53.1166 470.141C52.8232 469.608 52.4366 469.248 51.9566 469.061L52.4966 467.181C53.0032 467.408 53.4632 467.755 53.8766 468.221C54.2766 468.675 54.5966 469.215 54.8366 469.841C55.0632 470.468 55.1766 471.148 55.1766 471.881ZM49.0166 475.021V468.701C48.4166 468.741 47.8899 468.915 47.4366 469.221C46.9699 469.515 46.6099 469.895 46.3566 470.361C46.0899 470.815 45.9566 471.321 45.9566 471.881C45.9566 472.428 46.0899 472.935 46.3566 473.401C46.6099 473.855 46.9699 474.228 47.4366 474.521C47.8899 474.815 48.4166 474.981 49.0166 475.021ZM55.1766 458.787C55.1766 459.627 54.9766 460.367 54.5766 461.007C54.1766 461.647 53.6566 462.154 53.0166 462.527H59.2366V464.727H44.5166V462.787H46.3966C45.7699 462.387 45.2699 461.867 44.8966 461.227C44.5232 460.587 44.3366 459.874 44.3366 459.087C44.3366 458.367 44.4832 457.707 44.7766 457.107C45.0566 456.507 45.4499 455.987 45.9566 455.547C46.4632 455.107 47.0432 454.767 47.6966 454.527C48.3366 454.274 49.0166 454.147 49.7366 454.147C50.7366 454.147 51.6499 454.347 52.4766 454.747C53.3032 455.134 53.9632 455.68 54.4566 456.387C54.9366 457.08 55.1766 457.88 55.1766 458.787ZM53.2966 459.507C53.2966 459.04 53.1966 458.62 52.9966 458.247C52.7966 457.86 52.5299 457.534 52.1966 457.267C51.8632 456.987 51.4832 456.774 51.0566 456.627C50.6299 456.48 50.1899 456.407 49.7366 456.407C49.2566 456.407 48.8032 456.487 48.3766 456.647C47.9499 456.807 47.5766 457.04 47.2566 457.347C46.9366 457.64 46.6832 457.987 46.4966 458.387C46.3099 458.774 46.2166 459.2 46.2166 459.667C46.2166 459.947 46.2699 460.24 46.3766 460.547C46.4832 460.854 46.6299 461.14 46.8166 461.407C47.0032 461.674 47.2232 461.907 47.4766 462.107C47.7299 462.307 47.9966 462.447 48.2766 462.527H51.0166C51.4432 462.34 51.8299 462.094 52.1766 461.787C52.5099 461.48 52.7832 461.127 52.9966 460.727C53.1966 460.327 53.2966 459.92 53.2966 459.507ZM54.9766 442.788V444.988H49.1166C48.1699 444.988 47.4632 445.162 46.9966 445.508C46.5299 445.855 46.2966 446.342 46.2966 446.968C46.2966 447.355 46.4032 447.755 46.6166 448.168C46.8299 448.582 47.1232 448.948 47.4966 449.268C47.8566 449.588 48.2766 449.822 48.7566 449.968H54.9766V452.168H40.3766V449.968H46.6166C45.9099 449.568 45.3566 449.022 44.9566 448.328C44.5432 447.635 44.3366 446.888 44.3366 446.088C44.3366 445.435 44.4499 444.895 44.6766 444.468C44.9032 444.042 45.2166 443.708 45.6166 443.468C46.0032 443.215 46.4566 443.042 46.9766 442.948C47.4832 442.842 48.0232 442.788 48.5966 442.788H54.9766ZM51.9166 440.995C51.2499 440.995 50.6699 440.808 50.1766 440.435C49.6699 440.048 49.2832 439.521 49.0166 438.855C48.7366 438.188 48.5966 437.415 48.5966 436.535C48.5966 436.068 48.6299 435.595 48.6966 435.115C48.7632 434.621 48.8699 434.188 49.0166 433.815H48.3566C47.6232 433.815 47.0499 434.035 46.6366 434.475C46.2232 434.915 46.0166 435.548 46.0166 436.375C46.0166 436.961 46.1232 437.515 46.3366 438.035C46.5366 438.555 46.8232 439.108 47.1966 439.695L45.7166 440.435C45.2499 439.741 44.9032 439.048 44.6766 438.355C44.4499 437.648 44.3366 436.908 44.3366 436.135C44.3366 434.735 44.7099 433.635 45.4566 432.835C46.1899 432.021 47.2366 431.615 48.5966 431.615H52.4966C52.7499 431.615 52.9299 431.575 53.0366 431.495C53.1432 431.401 53.2032 431.248 53.2166 431.035H54.9766C55.0166 431.235 55.0432 431.415 55.0566 431.575C55.0699 431.735 55.0766 431.868 55.0766 431.975C55.0766 432.441 54.9632 432.795 54.7366 433.035C54.5099 433.275 54.2432 433.415 53.9366 433.455L53.3366 433.515C53.9232 433.968 54.3766 434.548 54.6966 435.255C55.0166 435.961 55.1766 436.675 55.1766 437.395C55.1766 438.088 55.0366 438.708 54.7566 439.255C54.4632 439.801 54.0699 440.228 53.5766 440.535C53.0832 440.841 52.5299 440.995 51.9166 440.995ZM52.5566 434.335C52.3832 434.175 52.2099 434.048 52.0366 433.955C51.8632 433.861 51.7099 433.815 51.5766 433.815H50.3766C50.2299 434.188 50.1232 434.581 50.0566 434.995C49.9766 435.408 49.9366 435.815 49.9366 436.215C49.9366 437.015 50.0966 437.668 50.4166 438.175C50.7366 438.668 51.1766 438.915 51.7366 438.915C52.0432 438.915 52.3366 438.835 52.6166 438.675C52.8966 438.501 53.1232 438.261 53.2966 437.955C53.4699 437.635 53.5566 437.241 53.5566 436.775C53.5566 436.295 53.4632 435.835 53.2766 435.395C53.0899 434.955 52.8499 434.601 52.5566 434.335ZM54.9766 419.566V421.766H49.1166C48.1432 421.766 47.4299 421.926 46.9766 422.246C46.5232 422.552 46.2966 423.012 46.2966 423.626C46.2966 424.052 46.4032 424.479 46.6166 424.906C46.8299 425.319 47.1232 425.692 47.4966 426.026C47.8566 426.359 48.2766 426.599 48.7566 426.746H54.9766V428.946H44.5166V426.946H46.6166C46.1499 426.679 45.7499 426.332 45.4166 425.906C45.0699 425.466 44.8032 424.972 44.6166 424.426C44.4299 423.879 44.3366 423.299 44.3366 422.686C44.3366 422.059 44.4499 421.546 44.6766 421.146C44.9032 420.732 45.2166 420.412 45.6166 420.186C46.0032 419.946 46.4566 419.786 46.9766 419.706C47.4832 419.612 48.0232 419.566 48.5966 419.566H54.9766ZM54.9766 417.012H44.5166V414.812H54.9766V417.012ZM42.7966 417.012H40.3766V414.812H42.7966V417.012ZM55.1766 407.428C55.1766 408.242 55.0366 408.982 54.7566 409.648C54.4632 410.302 54.0699 410.868 53.5766 411.348C53.0699 411.828 52.4966 412.202 51.8566 412.468C51.2032 412.722 50.5099 412.848 49.7766 412.848C48.7899 412.848 47.8899 412.622 47.0766 412.168C46.2499 411.715 45.5899 411.082 45.0966 410.268C44.5899 409.455 44.3366 408.502 44.3366 407.408C44.3366 406.315 44.5899 405.375 45.0966 404.588C45.5899 403.788 46.2432 403.168 47.0566 402.728C47.8699 402.288 48.7432 402.068 49.6766 402.068C49.8366 402.068 49.9899 402.075 50.1366 402.088C50.2699 402.102 50.3832 402.115 50.4766 402.128V410.508C51.0899 410.468 51.6299 410.302 52.0966 410.008C52.5499 409.702 52.9099 409.315 53.1766 408.848C53.4299 408.382 53.5566 407.882 53.5566 407.348C53.5566 406.762 53.4099 406.208 53.1166 405.688C52.8232 405.155 52.4366 404.795 51.9566 404.608L52.4966 402.728C53.0032 402.955 53.4632 403.302 53.8766 403.768C54.2766 404.222 54.5966 404.762 54.8366 405.388C55.0632 406.015 55.1766 406.695 55.1766 407.428ZM49.0166 410.568V404.248C48.4166 404.288 47.8899 404.462 47.4366 404.768C46.9699 405.062 46.6099 405.442 46.3566 405.908C46.0899 406.362 45.9566 406.868 45.9566 407.428C45.9566 407.975 46.0899 408.482 46.3566 408.948C46.6099 409.402 46.9699 409.775 47.4366 410.068C47.8899 410.362 48.4166 410.528 49.0166 410.568ZM54.9766 395.052H40.7766V390.012C40.7766 388.479 41.0966 387.199 41.7366 386.172C42.3632 385.146 43.2166 384.379 44.2966 383.872C45.3632 383.352 46.5499 383.092 47.8566 383.092C49.2966 383.092 50.5499 383.379 51.6166 383.952C52.6832 384.512 53.5099 385.312 54.0966 386.352C54.6832 387.392 54.9766 388.612 54.9766 390.012V395.052ZM47.8566 385.372C46.8566 385.372 45.9766 385.559 45.2166 385.932C44.4432 386.292 43.8432 386.819 43.4166 387.512C42.9766 388.192 42.7566 389.026 42.7566 390.012V392.812H52.9966V390.012C52.9966 389.012 52.7699 388.172 52.3166 387.492C51.8632 386.799 51.2499 386.272 50.4766 385.912C49.7032 385.552 48.8299 385.372 47.8566 385.372ZM51.9166 381.893C51.2499 381.893 50.6699 381.706 50.1766 381.333C49.6699 380.946 49.2832 380.42 49.0166 379.753C48.7366 379.086 48.5966 378.313 48.5966 377.433C48.5966 376.966 48.6299 376.493 48.6966 376.013C48.7632 375.52 48.8699 375.086 49.0166 374.713H48.3566C47.6232 374.713 47.0499 374.933 46.6366 375.373C46.2232 375.813 46.0166 376.446 46.0166 377.273C46.0166 377.86 46.1232 378.413 46.3366 378.933C46.5366 379.453 46.8232 380.006 47.1966 380.593L45.7166 381.333C45.2499 380.64 44.9032 379.946 44.6766 379.253C44.4499 378.546 44.3366 377.806 44.3366 377.033C44.3366 375.633 44.7099 374.533 45.4566 373.733C46.1899 372.92 47.2366 372.513 48.5966 372.513H52.4966C52.7499 372.513 52.9299 372.473 53.0366 372.393C53.1432 372.3 53.2032 372.146 53.2166 371.933H54.9766C55.0166 372.133 55.0432 372.313 55.0566 372.473C55.0699 372.633 55.0766 372.766 55.0766 372.873C55.0766 373.34 54.9632 373.693 54.7366 373.933C54.5099 374.173 54.2432 374.313 53.9366 374.353L53.3366 374.413C53.9232 374.866 54.3766 375.446 54.6966 376.153C55.0166 376.86 55.1766 377.573 55.1766 378.293C55.1766 378.986 55.0366 379.606 54.7566 380.153C54.4632 380.7 54.0699 381.126 53.5766 381.433C53.0832 381.74 52.5299 381.893 51.9166 381.893ZM52.5566 375.233C52.3832 375.073 52.2099 374.946 52.0366 374.853C51.8632 374.76 51.7099 374.713 51.5766 374.713H50.3766C50.2299 375.086 50.1232 375.48 50.0566 375.893C49.9766 376.306 49.9366 376.713 49.9366 377.113C49.9366 377.913 50.0966 378.566 50.4166 379.073C50.7366 379.566 51.1766 379.813 51.7366 379.813C52.0432 379.813 52.3366 379.733 52.6166 379.573C52.8966 379.4 53.1232 379.16 53.2966 378.853C53.4699 378.533 53.5566 378.14 53.5566 377.673C53.5566 377.193 53.4632 376.733 53.2766 376.293C53.0899 375.853 52.8499 375.5 52.5566 375.233ZM54.9766 360.464V362.664H49.1166C48.1432 362.664 47.4299 362.824 46.9766 363.144C46.5232 363.451 46.2966 363.911 46.2966 364.524C46.2966 364.951 46.4032 365.377 46.6166 365.804C46.8299 366.217 47.1232 366.591 47.4966 366.924C47.8566 367.257 48.2766 367.497 48.7566 367.644H54.9766V369.844H44.5166V367.844H46.6166C46.1499 367.577 45.7499 367.231 45.4166 366.804C45.0699 366.364 44.8032 365.871 44.6166 365.324C44.4299 364.777 44.3366 364.197 44.3366 363.584C44.3366 362.957 44.4499 362.444 44.6766 362.044C44.9032 361.631 45.2166 361.311 45.6166 361.084C46.0032 360.844 46.4566 360.684 46.9766 360.604C47.4832 360.511 48.0232 360.464 48.5966 360.464H54.9766ZM40.3766 357.89V355.69H51.9566C52.4899 355.69 52.8299 355.61 52.9766 355.45C53.1232 355.29 53.1966 355.09 53.1966 354.85C53.1966 354.584 53.1699 354.337 53.1166 354.11C53.0632 353.87 52.9966 353.664 52.9166 353.49L54.6566 353.17C54.7899 353.49 54.9032 353.87 54.9966 354.31C55.0899 354.75 55.1366 355.144 55.1366 355.49C55.1366 356.237 54.9299 356.824 54.5166 357.25C54.0899 357.677 53.5032 357.89 52.7566 357.89H40.3766ZM55.1766 347.155C55.1766 347.968 55.0366 348.708 54.7566 349.375C54.4632 350.028 54.0699 350.595 53.5766 351.075C53.0699 351.555 52.4966 351.928 51.8566 352.195C51.2032 352.448 50.5099 352.575 49.7766 352.575C48.7899 352.575 47.8899 352.348 47.0766 351.895C46.2499 351.442 45.5899 350.808 45.0966 349.995C44.5899 349.182 44.3366 348.228 44.3366 347.135C44.3366 346.042 44.5899 345.102 45.0966 344.315C45.5899 343.515 46.2432 342.895 47.0566 342.455C47.8699 342.015 48.7432 341.795 49.6766 341.795C49.8366 341.795 49.9899 341.802 50.1366 341.815C50.2699 341.828 50.3832 341.842 50.4766 341.855V350.235C51.0899 350.195 51.6299 350.028 52.0966 349.735C52.5499 349.428 52.9099 349.042 53.1766 348.575C53.4299 348.108 53.5566 347.608 53.5566 347.075C53.5566 346.488 53.4099 345.935 53.1166 345.415C52.8232 344.882 52.4366 344.522 51.9566 344.335L52.4966 342.455C53.0032 342.682 53.4632 343.028 53.8766 343.495C54.2766 343.948 54.5966 344.488 54.8366 345.115C55.0632 345.742 55.1766 346.422 55.1766 347.155ZM49.0166 350.295V343.975C48.4166 344.015 47.8899 344.188 47.4366 344.495C46.9699 344.788 46.6099 345.168 46.3566 345.635C46.0899 346.088 45.9566 346.595 45.9566 347.155C45.9566 347.702 46.0899 348.208 46.3566 348.675C46.6099 349.128 46.9699 349.502 47.4366 349.795C47.8899 350.088 48.4166 350.255 49.0166 350.295ZM46.4166 334.12C46.4299 334.974 46.6232 335.734 46.9966 336.4C47.3699 337.054 47.8966 337.52 48.5766 337.8H54.9766V340H44.5166V337.96H46.8566C46.1366 337.6 45.5632 337.127 45.1366 336.54C44.6966 335.954 44.4566 335.334 44.4166 334.68C44.4166 334.547 44.4166 334.44 44.4166 334.36C44.4166 334.267 44.4232 334.187 44.4366 334.12H46.4166Z" fill="white" fill-opacity="0.9"/>
</g>
</g>
<defs>
<filter id="filter0_dd_134_3887" x="-14" y="-14" width="135" height="870" filterUnits="userSpaceOnUse" color-interpolation-filters="sRGB">
<feFlood flood-opacity="0" result="BackgroundImageFix"/>
<feColorMatrix in="SourceAlpha" type="matrix" values="0 0 0 0 0 0 0 0 0 0 0 0 0 0 0 0 0 0 127 0" result="hardAlpha"/>
<feMorphology radius="5" operator="dilate" in="SourceAlpha" result="effect1_dropShadow_134_3887"/>
<feOffset dx="6" dy="6"/>
<feGaussianBlur stdDeviation="7.5"/>
<feColorMatrix type="matrix" values="0 0 0 0 0 0 0 0 0 0 0 0 0 0 0 0 0 0 0.1 0"/>
<feBlend mode="normal" in2="BackgroundImageFix" result="effect1_dropShadow_134_3887"/>
<feColorMatrix in="SourceAlpha" type="matrix" values="0 0 0 0 0 0 0 0 0 0 0 0 0 0 0 0 0 0 127 0" result="hardAlpha"/>
<feOffset dx="6" dy="6"/>
<feGaussianBlur stdDeviation="5"/>
<feColorMatrix type="matrix" values="0 0 0 0 0 0 0 0 0 0 0 0 0 0 0 0 0 0 0.2 0"/>
<feBlend mode="normal" in2="effect1_dropShadow_134_3887" result="effect2_dropShadow_134_3887"/>
<feBlend mode="normal" in="SourceGraphic" in2="effect2_dropShadow_134_3887" result="shape"/>
</filter>
<filter id="filter1_dd_134_3887" x="39.377" y="333.121" width="20.8594" height="164.52" filterUnits="userSpaceOnUse" color-interpolation-filters="sRGB">
<feFlood flood-opacity="0" result="BackgroundImageFix"/>
<feColorMatrix in="SourceAlpha" type="matrix" values="0 0 0 0 0 0 0 0 0 0 0 0 0 0 0 0 0 0 127 0" result="hardAlpha"/>
<feOffset dx="-1" dy="-1"/>
<feColorMatrix type="matrix" values="0 0 0 0 0 0 0 0 0 0 0 0 0 0 0 0 0 0 0.1 0"/>
<feBlend mode="normal" in2="BackgroundImageFix" result="effect1_dropShadow_134_3887"/>
<feColorMatrix in="SourceAlpha" type="matrix" values="0 0 0 0 0 0 0 0 0 0 0 0 0 0 0 0 0 0 127 0" result="hardAlpha"/>
<feOffset dx="1" dy="1"/>
<feColorMatrix type="matrix" values="0 0 0 0 1 0 0 0 0 1 0 0 0 0 1 0 0 0 0.1 0"/>
<feBlend mode="normal" in2="effect1_dropShadow_134_3887" result="effect2_dropShadow_134_3887"/>
<feBlend mode="normal" in="SourceGraphic" in2="effect2_dropShadow_134_3887" result="shape"/>
</filter>
<linearGradient id="paint0_linear_134_3887" x1="95" y1="500.327" x2="-15.0194" y2="493.537" gradientUnits="userSpaceOnUse">
<stop stop-color="#1F3041"/>
<stop offset="1" stop-color="#6081AC"/>
</linearGradient>
<clipPath id="clip0_134_3887">
<rect width="95" height="830" fill="white"/>
</clipPath>
</defs>
</svg>
