<svg width="95" height="830" viewBox="0 0 95 830" fill="none" xmlns="http://www.w3.org/2000/svg">
<g clip-path="url(#clip0_134_2757)">
<g filter="url(#filter0_dd_134_2757)">
<rect width="95" height="830" fill="url(#paint0_linear_134_2757)"/>
</g>
<g filter="url(#filter1_dd_134_2757)">
<path d="M44.1166 487.16C43.9166 487.333 43.7099 487.62 43.4966 488.02C43.2699 488.407 43.0766 488.86 42.9166 489.38C42.7566 489.9 42.6766 490.44 42.6766 491C42.6766 491.947 42.8499 492.647 43.1966 493.1C43.5432 493.54 44.0232 493.76 44.6366 493.76C45.0899 493.76 45.4499 493.633 45.7166 493.38C45.9699 493.127 46.1899 492.74 46.3766 492.22C46.5499 491.7 46.7299 491.047 46.9166 490.26C47.1432 489.3 47.4166 488.473 47.7366 487.78C48.0432 487.073 48.4566 486.533 48.9766 486.16C49.4966 485.773 50.1832 485.58 51.0366 485.58C52.0099 485.58 52.7966 485.813 53.3966 486.28C53.9966 486.747 54.4366 487.38 54.7166 488.18C54.9832 488.967 55.1166 489.833 55.1166 490.78C55.1166 491.86 54.9499 492.907 54.6166 493.92C54.2832 494.933 53.8099 495.84 53.1966 496.64L51.2766 495.62C51.5032 495.393 51.7632 495.033 52.0566 494.54C52.3366 494.047 52.5832 493.473 52.7966 492.82C52.9966 492.153 53.0966 491.46 53.0966 490.74C53.0966 489.86 52.9432 489.18 52.6366 488.7C52.3166 488.22 51.8632 487.98 51.2766 487.98C50.7966 487.98 50.4166 488.14 50.1366 488.46C49.8432 488.767 49.6032 489.213 49.4166 489.8C49.2166 490.373 49.0099 491.067 48.7966 491.88C48.5566 492.813 48.2832 493.593 47.9766 494.22C47.6699 494.847 47.2832 495.32 46.8166 495.64C46.3499 495.947 45.7432 496.1 44.9966 496.1C44.0632 496.1 43.2766 495.873 42.6366 495.42C41.9832 494.967 41.4966 494.353 41.1766 493.58C40.8432 492.793 40.6766 491.913 40.6766 490.94C40.6766 489.98 40.8299 489.093 41.1366 488.28C41.4432 487.467 41.8232 486.753 42.2766 486.14L44.1166 487.16ZM54.4366 478.008C54.5699 478.288 54.7232 478.675 54.8966 479.168C55.0566 479.662 55.1366 480.188 55.1366 480.748C55.1366 481.442 54.9499 482.042 54.5766 482.548C54.2032 483.042 53.5966 483.288 52.7566 483.288H46.2166V484.668H44.5166V483.288H41.0766V481.088H44.5166V478.808H46.2166V481.088H52.0566C52.4299 481.062 52.7032 480.948 52.8766 480.748C53.0366 480.535 53.1166 480.275 53.1166 479.968C53.1166 479.662 53.0632 479.368 52.9566 479.088C52.8499 478.808 52.7632 478.602 52.6966 478.468L54.4366 478.008ZM55.1766 471.881C55.1766 472.961 54.9299 473.908 54.4366 474.721C53.9432 475.535 53.2899 476.168 52.4766 476.621C51.6499 477.075 50.7499 477.301 49.7766 477.301C48.7899 477.301 47.8832 477.075 47.0566 476.621C46.2299 476.168 45.5699 475.535 45.0766 474.721C44.5832 473.908 44.3366 472.955 44.3366 471.861C44.3366 470.768 44.5899 469.821 45.0966 469.021C45.5899 468.221 46.2432 467.608 47.0566 467.181C47.8699 466.741 48.7432 466.521 49.6766 466.521C50.0099 466.521 50.2766 466.541 50.4766 466.581V474.961C51.0899 474.921 51.6299 474.755 52.0966 474.461C52.5499 474.155 52.9099 473.775 53.1766 473.321C53.4299 472.855 53.5566 472.348 53.5566 471.801C53.5566 471.215 53.4099 470.661 53.1166 470.141C52.8232 469.621 52.4366 469.261 51.9566 469.061L52.4966 467.181C53.2832 467.541 53.9299 468.141 54.4366 468.981C54.9299 469.808 55.1766 470.775 55.1766 471.881ZM49.0166 475.021V468.701C48.4166 468.755 47.8899 468.928 47.4366 469.221C46.9699 469.515 46.6099 469.895 46.3566 470.361C46.0899 470.815 45.9566 471.321 45.9566 471.881C45.9566 472.428 46.0899 472.935 46.3566 473.401C46.6099 473.855 46.9699 474.228 47.4366 474.521C47.8899 474.815 48.4166 474.981 49.0166 475.021ZM55.1766 458.787C55.1766 459.627 54.9766 460.367 54.5766 461.007C54.1766 461.647 53.6566 462.154 53.0166 462.527H59.2366V464.727H44.5166V462.787H46.3966C45.7699 462.387 45.2699 461.867 44.8966 461.227C44.5232 460.587 44.3366 459.874 44.3366 459.087C44.3366 458.127 44.5899 457.28 45.0966 456.547C45.5899 455.8 46.2499 455.214 47.0766 454.787C47.8899 454.36 48.7766 454.147 49.7366 454.147C50.7499 454.147 51.6699 454.347 52.4966 454.747C53.3099 455.147 53.9632 455.694 54.4566 456.387C54.9366 457.08 55.1766 457.88 55.1766 458.787ZM53.2966 459.507C53.2966 458.88 53.1299 458.34 52.7966 457.887C52.4499 457.42 52.0099 457.06 51.4766 456.807C50.9299 456.54 50.3499 456.407 49.7366 456.407C49.0966 456.407 48.5099 456.554 47.9766 456.847C47.4432 457.127 47.0166 457.514 46.6966 458.007C46.3766 458.487 46.2166 459.04 46.2166 459.667C46.2166 460.04 46.3099 460.434 46.4966 460.847C46.6832 461.247 46.9299 461.6 47.2366 461.907C47.5432 462.214 47.8899 462.42 48.2766 462.527H51.0166C51.6566 462.26 52.1966 461.854 52.6366 461.307C53.0766 460.747 53.2966 460.147 53.2966 459.507ZM54.9766 442.788V444.988H49.1166C48.1699 444.988 47.4632 445.162 46.9966 445.508C46.5299 445.855 46.2966 446.342 46.2966 446.968C46.2966 447.368 46.4032 447.775 46.6166 448.188C46.8299 448.588 47.1232 448.948 47.4966 449.268C47.8566 449.588 48.2766 449.822 48.7566 449.968H54.9766V452.168H40.3766V449.968H46.6166C45.8966 449.568 45.3366 449.022 44.9366 448.328C44.5366 447.635 44.3366 446.888 44.3366 446.088C44.3366 445.222 44.5366 444.548 44.9366 444.068C45.3232 443.588 45.8432 443.255 46.4966 443.068C47.1366 442.882 47.8366 442.788 48.5966 442.788H54.9766ZM51.9166 440.995C51.2499 440.995 50.6699 440.808 50.1766 440.435C49.6699 440.061 49.2832 439.541 49.0166 438.875C48.7366 438.195 48.5966 437.415 48.5966 436.535C48.5966 436.068 48.6366 435.595 48.7166 435.115C48.7832 434.621 48.8832 434.188 49.0166 433.815H48.3566C47.6232 433.815 47.0499 434.035 46.6366 434.475C46.2232 434.915 46.0166 435.548 46.0166 436.375C46.0166 436.948 46.1166 437.501 46.3166 438.035C46.5166 438.568 46.8099 439.121 47.1966 439.695L45.7166 440.435C45.2632 439.741 44.9232 439.048 44.6966 438.355C44.4566 437.648 44.3366 436.908 44.3366 436.135C44.3366 434.735 44.7099 433.635 45.4566 432.835C46.1899 432.021 47.2366 431.615 48.5966 431.615H52.4966C52.7499 431.615 52.9299 431.575 53.0366 431.495C53.1432 431.401 53.2032 431.248 53.2166 431.035H54.9766C55.0166 431.235 55.0432 431.415 55.0566 431.575C55.0699 431.735 55.0766 431.868 55.0766 431.975C55.0766 432.455 54.9632 432.815 54.7366 433.055C54.4966 433.281 54.2299 433.415 53.9366 433.455L53.3366 433.515C53.9232 433.968 54.3766 434.548 54.6966 435.255C55.0166 435.961 55.1766 436.675 55.1766 437.395C55.1766 438.088 55.0366 438.708 54.7566 439.255C54.4632 439.801 54.0699 440.228 53.5766 440.535C53.0832 440.841 52.5299 440.995 51.9166 440.995ZM52.5566 434.335C52.2099 433.988 51.8832 433.815 51.5766 433.815H50.3766C50.0832 434.601 49.9366 435.401 49.9366 436.215C49.9366 437.015 50.1032 437.668 50.4366 438.175C50.7566 438.668 51.1899 438.915 51.7366 438.915C52.1899 438.915 52.6099 438.735 52.9966 438.375C53.3699 438.001 53.5566 437.468 53.5566 436.775C53.5566 436.308 53.4632 435.855 53.2766 435.415C53.0899 434.975 52.8499 434.615 52.5566 434.335ZM54.9766 419.566V421.766H49.1166C48.1299 421.766 47.4166 421.926 46.9766 422.246C46.5232 422.552 46.2966 423.012 46.2966 423.626C46.2966 424.052 46.4032 424.479 46.6166 424.906C46.8299 425.319 47.1232 425.692 47.4966 426.026C47.8699 426.359 48.2899 426.599 48.7566 426.746H54.9766V428.946H44.5166V426.946H46.6166C45.9232 426.546 45.3699 425.966 44.9566 425.206C44.5432 424.446 44.3366 423.606 44.3366 422.686C44.3366 421.859 44.5366 421.219 44.9366 420.766C45.3232 420.312 45.8366 419.999 46.4766 419.826C47.1166 419.652 47.8232 419.566 48.5966 419.566H54.9766ZM42.7966 417.012H40.3766V414.812H42.7966V417.012ZM54.9766 417.012H44.5166V414.812H54.9766V417.012ZM55.1766 407.428C55.1766 408.508 54.9299 409.455 54.4366 410.268C53.9432 411.082 53.2899 411.715 52.4766 412.168C51.6499 412.622 50.7499 412.848 49.7766 412.848C48.7899 412.848 47.8832 412.622 47.0566 412.168C46.2299 411.715 45.5699 411.082 45.0766 410.268C44.5832 409.455 44.3366 408.502 44.3366 407.408C44.3366 406.315 44.5899 405.368 45.0966 404.568C45.5899 403.768 46.2432 403.155 47.0566 402.728C47.8699 402.288 48.7432 402.068 49.6766 402.068C50.0099 402.068 50.2766 402.088 50.4766 402.128V410.508C51.0899 410.468 51.6299 410.302 52.0966 410.008C52.5499 409.702 52.9099 409.322 53.1766 408.868C53.4299 408.402 53.5566 407.895 53.5566 407.348C53.5566 406.762 53.4099 406.208 53.1166 405.688C52.8232 405.168 52.4366 404.808 51.9566 404.608L52.4966 402.728C53.2832 403.088 53.9299 403.688 54.4366 404.528C54.9299 405.355 55.1766 406.322 55.1766 407.428ZM49.0166 410.568V404.248C48.4166 404.302 47.8899 404.475 47.4366 404.768C46.9699 405.062 46.6099 405.442 46.3566 405.908C46.0899 406.362 45.9566 406.868 45.9566 407.428C45.9566 407.975 46.0899 408.482 46.3566 408.948C46.6099 409.402 46.9699 409.775 47.4366 410.068C47.8899 410.362 48.4166 410.528 49.0166 410.568ZM54.9766 395.052H40.7766V390.012C40.7766 388.479 41.0966 387.206 41.7366 386.192C42.3632 385.166 43.2166 384.392 44.2966 383.872C45.3632 383.352 46.5499 383.092 47.8566 383.092C49.2966 383.092 50.5499 383.379 51.6166 383.952C52.6832 384.526 53.5099 385.332 54.0966 386.372C54.6832 387.399 54.9766 388.612 54.9766 390.012V395.052ZM47.8566 385.372C46.8566 385.372 45.9766 385.559 45.2166 385.932C44.4566 386.292 43.8566 386.819 43.4166 387.512C42.9766 388.192 42.7566 389.026 42.7566 390.012V392.812H52.9966V390.012C52.9966 389.012 52.7699 388.172 52.3166 387.492C51.8632 386.799 51.2499 386.272 50.4766 385.912C49.7032 385.552 48.8299 385.372 47.8566 385.372ZM51.9166 381.893C51.2499 381.893 50.6699 381.706 50.1766 381.333C49.6699 380.96 49.2832 380.44 49.0166 379.773C48.7366 379.093 48.5966 378.313 48.5966 377.433C48.5966 376.966 48.6366 376.493 48.7166 376.013C48.7832 375.52 48.8832 375.086 49.0166 374.713H48.3566C47.6232 374.713 47.0499 374.933 46.6366 375.373C46.2232 375.813 46.0166 376.446 46.0166 377.273C46.0166 377.846 46.1166 378.4 46.3166 378.933C46.5166 379.466 46.8099 380.02 47.1966 380.593L45.7166 381.333C45.2632 380.64 44.9232 379.946 44.6966 379.253C44.4566 378.546 44.3366 377.806 44.3366 377.033C44.3366 375.633 44.7099 374.533 45.4566 373.733C46.1899 372.92 47.2366 372.513 48.5966 372.513H52.4966C52.7499 372.513 52.9299 372.473 53.0366 372.393C53.1432 372.3 53.2032 372.146 53.2166 371.933H54.9766C55.0166 372.133 55.0432 372.313 55.0566 372.473C55.0699 372.633 55.0766 372.766 55.0766 372.873C55.0766 373.353 54.9632 373.713 54.7366 373.953C54.4966 374.18 54.2299 374.313 53.9366 374.353L53.3366 374.413C53.9232 374.866 54.3766 375.446 54.6966 376.153C55.0166 376.86 55.1766 377.573 55.1766 378.293C55.1766 378.986 55.0366 379.606 54.7566 380.153C54.4632 380.7 54.0699 381.126 53.5766 381.433C53.0832 381.74 52.5299 381.893 51.9166 381.893ZM52.5566 375.233C52.2099 374.886 51.8832 374.713 51.5766 374.713H50.3766C50.0832 375.5 49.9366 376.3 49.9366 377.113C49.9366 377.913 50.1032 378.566 50.4366 379.073C50.7566 379.566 51.1899 379.813 51.7366 379.813C52.1899 379.813 52.6099 379.633 52.9966 379.273C53.3699 378.9 53.5566 378.366 53.5566 377.673C53.5566 377.206 53.4632 376.753 53.2766 376.313C53.0899 375.873 52.8499 375.513 52.5566 375.233ZM54.9766 360.464V362.664H49.1166C48.1299 362.664 47.4166 362.824 46.9766 363.144C46.5232 363.451 46.2966 363.911 46.2966 364.524C46.2966 364.951 46.4032 365.377 46.6166 365.804C46.8299 366.217 47.1232 366.591 47.4966 366.924C47.8699 367.257 48.2899 367.497 48.7566 367.644H54.9766V369.844H44.5166V367.844H46.6166C45.9232 367.444 45.3699 366.864 44.9566 366.104C44.5432 365.344 44.3366 364.504 44.3366 363.584C44.3366 362.757 44.5366 362.117 44.9366 361.664C45.3232 361.211 45.8366 360.897 46.4766 360.724C47.1166 360.551 47.8232 360.464 48.5966 360.464H54.9766ZM40.3766 357.89V355.69H51.9566C52.4899 355.69 52.8299 355.61 52.9766 355.45C53.1232 355.29 53.1966 355.09 53.1966 354.85C53.1966 354.584 53.1699 354.33 53.1166 354.09C53.0632 353.85 52.9966 353.65 52.9166 353.49L54.6566 353.17C54.7899 353.49 54.9032 353.87 54.9966 354.31C55.0899 354.75 55.1366 355.144 55.1366 355.49C55.1366 356.237 54.9299 356.824 54.5166 357.25C54.0899 357.677 53.5032 357.89 52.7566 357.89H40.3766ZM55.1766 347.155C55.1766 348.235 54.9299 349.182 54.4366 349.995C53.9432 350.808 53.2899 351.442 52.4766 351.895C51.6499 352.348 50.7499 352.575 49.7766 352.575C48.7899 352.575 47.8832 352.348 47.0566 351.895C46.2299 351.442 45.5699 350.808 45.0766 349.995C44.5832 349.182 44.3366 348.228 44.3366 347.135C44.3366 346.042 44.5899 345.095 45.0966 344.295C45.5899 343.495 46.2432 342.882 47.0566 342.455C47.8699 342.015 48.7432 341.795 49.6766 341.795C50.0099 341.795 50.2766 341.815 50.4766 341.855V350.235C51.0899 350.195 51.6299 350.028 52.0966 349.735C52.5499 349.428 52.9099 349.048 53.1766 348.595C53.4299 348.128 53.5566 347.622 53.5566 347.075C53.5566 346.488 53.4099 345.935 53.1166 345.415C52.8232 344.895 52.4366 344.535 51.9566 344.335L52.4966 342.455C53.2832 342.815 53.9299 343.415 54.4366 344.255C54.9299 345.082 55.1766 346.048 55.1766 347.155ZM49.0166 350.295V343.975C48.4166 344.028 47.8899 344.202 47.4366 344.495C46.9699 344.788 46.6099 345.168 46.3566 345.635C46.0899 346.088 45.9566 346.595 45.9566 347.155C45.9566 347.702 46.0899 348.208 46.3566 348.675C46.6099 349.128 46.9699 349.502 47.4366 349.795C47.8899 350.088 48.4166 350.255 49.0166 350.295ZM46.4166 334.12C46.4432 334.974 46.6432 335.734 47.0166 336.4C47.3766 337.054 47.8966 337.52 48.5766 337.8H54.9766V340H44.5166V337.96H46.8566C46.1366 337.6 45.5632 337.127 45.1366 336.54C44.6966 335.954 44.4566 335.334 44.4166 334.68C44.4166 334.56 44.4166 334.454 44.4166 334.36C44.4166 334.267 44.4232 334.187 44.4366 334.12H46.4166Z" fill="white" fill-opacity="0.9"/>
</g>
</g>
<defs>
<filter id="filter0_dd_134_2757" x="-14" y="-14" width="135" height="870" filterUnits="userSpaceOnUse" color-interpolation-filters="sRGB">
<feFlood flood-opacity="0" result="BackgroundImageFix"/>
<feColorMatrix in="SourceAlpha" type="matrix" values="0 0 0 0 0 0 0 0 0 0 0 0 0 0 0 0 0 0 127 0" result="hardAlpha"/>
<feMorphology radius="5" operator="dilate" in="SourceAlpha" result="effect1_dropShadow_134_2757"/>
<feOffset dx="6" dy="6"/>
<feGaussianBlur stdDeviation="7.5"/>
<feColorMatrix type="matrix" values="0 0 0 0 0 0 0 0 0 0 0 0 0 0 0 0 0 0 0.1 0"/>
<feBlend mode="normal" in2="BackgroundImageFix" result="effect1_dropShadow_134_2757"/>
<feColorMatrix in="SourceAlpha" type="matrix" values="0 0 0 0 0 0 0 0 0 0 0 0 0 0 0 0 0 0 127 0" result="hardAlpha"/>
<feOffset dx="6" dy="6"/>
<feGaussianBlur stdDeviation="5"/>
<feColorMatrix type="matrix" values="0 0 0 0 0 0 0 0 0 0 0 0 0 0 0 0 0 0 0.2 0"/>
<feBlend mode="normal" in2="effect1_dropShadow_134_2757" result="effect2_dropShadow_134_2757"/>
<feBlend mode="normal" in="SourceGraphic" in2="effect2_dropShadow_134_2757" result="shape"/>
</filter>
<filter id="filter1_dd_134_2757" x="39.377" y="333.121" width="20.8594" height="164.52" filterUnits="userSpaceOnUse" color-interpolation-filters="sRGB">
<feFlood flood-opacity="0" result="BackgroundImageFix"/>
<feColorMatrix in="SourceAlpha" type="matrix" values="0 0 0 0 0 0 0 0 0 0 0 0 0 0 0 0 0 0 127 0" result="hardAlpha"/>
<feOffset dx="-1" dy="-1"/>
<feColorMatrix type="matrix" values="0 0 0 0 0 0 0 0 0 0 0 0 0 0 0 0 0 0 0.1 0"/>
<feBlend mode="normal" in2="BackgroundImageFix" result="effect1_dropShadow_134_2757"/>
<feColorMatrix in="SourceAlpha" type="matrix" values="0 0 0 0 0 0 0 0 0 0 0 0 0 0 0 0 0 0 127 0" result="hardAlpha"/>
<feOffset dx="1" dy="1"/>
<feColorMatrix type="matrix" values="0 0 0 0 1 0 0 0 0 1 0 0 0 0 1 0 0 0 0.1 0"/>
<feBlend mode="normal" in2="effect1_dropShadow_134_2757" result="effect2_dropShadow_134_2757"/>
<feBlend mode="normal" in="SourceGraphic" in2="effect2_dropShadow_134_2757" result="shape"/>
</filter>
<linearGradient id="paint0_linear_134_2757" x1="95" y1="500.327" x2="-15.0194" y2="493.537" gradientUnits="userSpaceOnUse">
<stop stop-color="#0F7B3F"/>
<stop offset="1" stop-color="#054D25"/>
</linearGradient>
<clipPath id="clip0_134_2757">
<rect width="95" height="830" fill="white"/>
</clipPath>
</defs>
</svg>
