<svg xmlns="http://www.w3.org/2000/svg" viewBox="0 0 32 32" fill="none">
  <defs>
    <linearGradient id="pear" x1="20%" y1="10%" x2="80%" y2="95%">
      <stop offset="0%" stop-color="#84e0bd"/>
      <stop offset="100%" stop-color="#0b6a31"/>
    </linearGradient>
  </defs>
  <!-- Pear body -->
  <path d="M16 27c-4.7 0-8-3.2-8-7.4 0-3 1.6-5.6 4-7 .8-.5 1.4-1.3 1.6-2.3.3-1.4 1.2-2.5 2.4-2.5 1.2 0 2.1 1.1 2.4 2.5.2 1 .8 1.8 1.6 2.3 2.4 1.4 4 4 4 7 0 4.2-3.3 7.4-8 7.4z" fill="url(#pear)"/>
  <!-- Leaf -->
  <path d="M20.5 7c1.7-.5 3.3.5 3.7 2.2-1.8.1-3.3-.6-3.7-2.2z" fill="#18ba67"/>
  <!-- Stem -->
  <path d="M18 5.5c-.4 1-.5 2.1-.2 3.2" stroke="#0a0a0a" stroke-width="1.1" stroke-linecap="round" fill="none"/>
</svg>
